<svg width="30" height="30" viewBox="0 0 30 30" fill="none" xmlns="http://www.w3.org/2000/svg">
<path d="M12.3135 13.7783C12.5684 13.5938 12.6914 13.2891 12.6914 12.8701C12.7002 12.6709 12.6592 12.4746 12.5713 12.2959C12.4922 12.1523 12.375 12.0322 12.2314 11.9473C12.0826 11.857 11.9173 11.7972 11.7451 11.7715C11.5576 11.7363 11.3672 11.7188 11.1797 11.7217H9.12012V14.0566H11.3496C11.7334 14.0596 12.0586 13.9658 12.3135 13.7783ZM12.6592 15.8877C12.3721 15.668 11.9883 15.5596 11.5107 15.5596H9.11426V18.3135H11.4639C11.6836 18.3135 11.8857 18.293 12.082 18.252C12.2677 18.2156 12.4448 18.144 12.6035 18.041C12.7529 17.9443 12.873 17.8125 12.9639 17.6426C13.0518 17.4727 13.0957 17.2559 13.0957 16.9951C13.0957 16.4766 12.9492 16.1104 12.6592 15.8877ZM15 1.875C7.75195 1.875 1.875 7.75195 1.875 15C1.875 22.248 7.75195 28.125 15 28.125C22.248 28.125 28.125 22.248 28.125 15C28.125 7.75195 22.248 1.875 15 1.875ZM17.5342 10.2803H21.5889V11.2676H17.5342V10.2803ZM15 18.4219C14.8104 18.7819 14.5395 19.0928 14.209 19.3301C13.8633 19.5703 13.4795 19.7461 13.0723 19.8486C12.6462 19.9628 12.2067 20.019 11.7656 20.0156H6.91406V10.0225H11.6309C12.1084 10.0225 12.542 10.0664 12.9375 10.1484C13.3301 10.2305 13.6641 10.3711 13.9453 10.5615C14.2236 10.752 14.4434 11.0068 14.5986 11.3232C14.751 11.6367 14.8301 12.0293 14.8301 12.4951C14.8301 12.999 14.7158 13.415 14.4873 13.752C14.2559 14.0889 13.9219 14.3613 13.4678 14.5752C14.0859 14.751 14.54 15.0645 14.8389 15.5039C15.1436 15.9492 15.293 16.4824 15.293 17.1094C15.293 17.6191 15.1963 18.0557 15 18.4219ZM23.168 16.875H17.9414C17.9414 17.4434 18.1377 17.9883 18.4336 18.2812C18.7324 18.5713 19.1602 18.7178 19.7197 18.7178C20.124 18.7178 20.4668 18.6152 20.7598 18.4131C21.0498 18.2109 21.2256 17.9971 21.29 17.7744H23.042C22.7607 18.6445 22.333 19.2656 21.7529 19.6406C21.1787 20.0156 20.4756 20.2031 19.6582 20.2031C19.0869 20.2031 18.5742 20.1094 18.1143 19.9307C17.6719 19.7578 17.2734 19.4941 16.9453 19.1543C16.6218 18.8053 16.3717 18.3948 16.21 17.9473C16.0312 17.4521 15.9434 16.9307 15.9492 16.4062C15.9492 15.8643 16.04 15.3604 16.2158 14.8916C16.5527 13.9805 17.2529 13.251 18.1465 12.873C18.624 12.6738 19.1367 12.5742 19.6553 12.5801C20.2705 12.5801 20.8037 12.6973 21.2666 12.9375C21.7122 13.1669 22.0991 13.4957 22.3975 13.8984C22.6934 14.2998 22.9014 14.7568 23.0332 15.2725C23.1592 15.7793 23.2031 16.3125 23.168 16.875ZM19.5938 14.0742C19.2773 14.0742 19.0107 14.1299 18.8057 14.2383C18.6006 14.3467 18.4307 14.4814 18.3018 14.6367C18.179 14.7866 18.0883 14.9601 18.0352 15.1465C17.9883 15.3018 17.9561 15.46 17.9443 15.6211H21.1816C21.1348 15.1143 20.959 14.7393 20.7246 14.4756C20.4785 14.2148 20.083 14.0742 19.5938 14.0742Z" fill="white"/>
</svg>
