<svg width="43" height="43" viewBox="0 0 43 43" fill="none" xmlns="http://www.w3.org/2000/svg">
<path d="M42.5938 21.5C42.5938 9.85062 33.1494 0.40625 21.5 0.40625C10.1523 0.40625 0.900547 9.36828 0.428047 20.6C0.422422 20.7378 0.421016 20.8777 0.418203 21.0163C0.414687 21.178 0.40625 21.3383 0.40625 21.5V21.571C0.40625 33.1817 9.85062 42.5938 21.5 42.5938C33.1494 42.5938 42.5938 33.1817 42.5938 21.571L42.5923 21.5366L42.5938 21.5ZM25.7117 40.7312C25.3426 40.5308 24.9882 40.2024 24.8441 39.7552C24.5832 38.9452 24.785 38.3166 25.0845 37.5854C25.3236 36.9997 25.0023 36.3233 25.1612 35.7102C25.4713 34.517 25.8453 33.2239 25.73 31.9421C25.6583 31.1553 25.4839 31.1195 24.9017 30.6652C24.2879 30.1836 24.2879 29.5023 23.8773 28.8934C23.5053 28.34 24.5066 26.2377 24.2274 26.1097C23.9145 25.9655 23.203 26.154 22.978 25.8552C22.7361 25.5331 22.5673 25.1527 22.2348 24.9031C22.0203 24.7421 21.0718 24.2035 20.8187 24.2415C19.5439 24.432 18.163 23.1889 17.3495 22.3782C16.7891 21.822 16.5556 21.1984 16.145 20.555C15.7977 20.0101 15.2717 19.963 15.0137 19.2873C14.743 18.5813 14.904 17.6771 14.8217 16.9346C14.7324 16.1366 14.3359 15.882 13.8402 15.2717C12.7798 13.9618 12.3896 12.0071 10.378 12.0071C9.29727 12.0071 9.37391 14.3612 8.50344 14.0455C7.51906 13.689 5.99609 15.3751 6.01789 15.148C6.1332 13.9709 7.34187 13.3986 7.46 13.0477C7.84602 11.896 5.73523 12.1716 6.00594 11.2112C6.13812 10.7387 7.48109 10.3948 7.20336 10.1129C7.11969 10.0271 6.09242 9.30641 6.14305 9.27055C6.33359 9.13695 7.16188 9.56024 6.98187 9.01039C6.92141 8.82758 6.82367 8.65953 6.73086 8.49008C7.15777 8.00529 7.60831 7.54183 8.08086 7.10141C8.79383 7.04305 9.53352 7.08734 9.80141 7.13938C11.5002 7.47406 12.0908 8.33398 13.7895 7.69766C14.6066 7.3925 17.618 7.92195 18.0498 8.77836C18.2846 9.24664 19.1593 8.495 19.5003 8.44438C19.8659 8.38953 20.6921 8.95273 20.9438 8.6075C21.6069 7.69977 20.5191 7.32289 21.8037 8.0218C22.6651 8.49078 24.3484 6.42852 23.8154 8.85219C23.4308 10.5995 22.0175 10.6381 20.9811 11.7765C19.9609 12.8973 22.9998 13.2024 23.0778 14.2149C23.3028 17.1301 24.8574 13.9773 24.4412 12.9409C23.6361 10.9334 25.3573 11.4847 26.0506 12.7602C26.4352 13.4682 26.7277 12.872 27.1988 12.6252C27.5806 12.4262 27.6826 13.5041 27.7648 13.6918C28.0355 14.3155 28.925 14.5018 28.7745 15.3048C28.6072 16.19 27.9779 15.9242 27.3627 16.074C26.6757 16.2406 27.4737 16.8186 27.3739 17.0295C27.2656 17.2602 26.4373 17.3558 26.2166 17.4866C25.5669 17.8691 25.9641 18.6151 25.4558 19.0159C25.107 19.2915 24.7555 19.1122 24.688 19.6283C24.6085 20.2365 23.4877 20.432 23.6333 21.0134C23.6734 21.173 23.9961 22.3655 23.7929 22.4288C23.6994 22.4591 22.9604 21.3917 22.7586 21.2848C22.3592 21.0732 20.5438 21.2462 20.3103 22.4478C20.1591 23.2248 21.4093 24.4517 21.7278 23.3816C22.1223 22.0646 22.31 24.1487 22.2151 24.2302C22.4035 24.3948 23.506 23.9595 23.1791 24.7224C23.0405 25.0452 23.3148 25.8868 23.8041 25.6273C24.0088 25.5191 24.5361 25.8453 24.6282 25.6702C24.7606 25.4686 24.9395 25.3017 25.1499 25.1837C25.6428 24.8954 26.3804 25.1661 26.9204 25.1977C27.2502 25.2167 29.953 26.6912 29.9677 26.9872C30.0268 28.0946 32.0701 27.9505 32.3837 28.3463C33.2267 29.4193 32.9673 28.8744 32.352 30.249C32.042 30.9409 32.312 31.7895 31.561 32.2909C31.1996 32.5313 30.7587 32.4111 30.4374 32.7514C30.1477 33.0587 30.2616 33.4257 30.0859 33.7808C29.8742 34.2034 27.0301 36.7592 26.8423 37.3773C26.7488 37.6873 25.9002 37.9573 26.6159 38.2548C27.0322 38.3771 25.6941 39.642 26.3375 40.1659C26.4943 40.2931 26.597 40.4007 26.6743 40.497C26.353 40.5828 26.0345 40.6609 25.7117 40.7312ZM24.027 1.97914C23.9996 2.08109 24.0411 2.20133 24.2176 2.31875C24.6155 2.58242 24.1037 3.16812 23.5545 2.79055C23.0068 2.41297 21.7749 2.96 21.86 3.24336C21.9437 3.52672 22.3241 3.63922 22.9119 3.41352C23.4983 3.18711 23.7402 3.44727 23.8386 3.71586C23.9061 3.89797 23.8386 3.99922 23.8196 4.24461C23.802 4.49 23.1193 4.31984 22.5519 4.35852C21.983 4.39648 21.3777 4.24461 21.3952 3.92328C21.4142 3.60266 20.7898 3.01695 20.4172 2.77227C20.0452 2.52758 20.5803 1.99883 21.0739 2.39469C21.5654 2.79125 21.5851 2.31945 22.1532 2.16898C22.4759 2.0832 22.3466 1.95453 22.2369 1.83219C22.8416 1.85328 23.4378 1.90391 24.027 1.97914ZM26.4999 8.21516C26.9253 8.33047 27.6643 8.86836 27.6643 9.12289C27.6643 9.37813 27.3289 9.69734 27.1805 9.66078C26.1097 9.39992 25.2069 8.34313 24.7098 7.76445C23.8421 6.75547 23.897 7.62031 22.5223 7.18367C22.1708 7.07117 21.6132 5.98063 21.9823 5.44273C22.3515 4.90484 22.7776 4.81977 23.1179 4.9625C23.4582 5.10312 24.4524 4.50898 24.6809 5.21703C24.9073 5.92508 25.5324 6.82859 26.1012 7.07047C26.6708 7.31094 26.0731 8.09984 26.4999 8.21516ZM26.8409 11.5009C27.0111 11.8405 25.8179 11.1043 25.5338 10.7647C25.2512 10.4258 24.8237 9.66008 25.1661 9.32047C25.5064 8.98156 26.27 10.0271 26.6715 10.2556C27.4653 10.7091 26.6708 11.162 26.8409 11.5009ZM20.7983 6.3575C20.8805 6.2443 21.0549 6.52766 21.2103 6.81102C21.3657 7.09438 21.1513 7.49375 20.7983 7.43328C20.4453 7.37422 20.6007 6.63453 20.7983 6.3575ZM20.7983 3.50844C20.7983 3.50844 21.1309 4.31984 20.7983 4.18766C20.4657 4.05547 20.4495 3.71586 20.7983 3.50844ZM20.8658 6.07484C20.7709 5.84914 20.7491 4.92172 20.9797 4.64047C21.32 4.22563 21.8698 5.03703 21.5 5.35766C21.1309 5.67898 20.96 6.30195 20.8658 6.07484ZM16.5929 7.06977C15.9748 7.02547 15.9615 6.49109 15.8757 6.20773C15.7899 5.92438 15.278 6.74563 14.7605 6.20773C14.243 5.66984 14.8815 4.9625 14.7676 4.53711C14.6537 4.11242 15.9882 4.53711 16.1879 4.53711C16.3876 4.53711 16.9269 5.41461 17.0682 5.39984C17.2109 5.38578 17.9773 6.09383 17.9773 5.81047C17.9773 5.52781 18.0941 5.04547 18.6313 4.98922C19.4553 4.90414 18.7163 5.89555 18.6875 6.28156C18.6601 6.66758 19.314 7.33906 19.5538 7.62242C19.7956 7.90578 18.9441 8.10477 18.8014 7.93391C18.6601 7.76375 18.2902 7.93391 17.9773 8.16031C17.6659 8.38672 16.813 7.84883 16.4157 7.67867C16.0177 7.50922 17.2109 7.11336 16.5929 7.06977ZM18.8014 2.60211C19.3505 2.79125 19.6627 2.9607 19.9327 2.60211C20.1936 2.25617 20.3926 3.35656 20.2034 3.6582C20.0136 3.96125 19.6543 3.88602 19.5966 3.6582C19.5404 3.4332 18.2523 2.41297 18.8014 2.60211ZM19.5966 6.01859C19.4082 5.7725 19.3892 5.48984 19.5966 5.28242C19.8055 5.075 19.738 4.82961 20.1092 4.75437C20.292 4.71641 20.3166 4.99906 20.3166 5.26344C20.3166 5.52781 20.5445 5.86742 20.3166 6.28156C20.0895 6.6957 19.7865 6.26328 19.5966 6.01859ZM21.147 1.82164C21.1386 1.87367 21.1041 1.90461 21.0177 1.89617C20.9582 1.88609 20.9016 1.8633 20.8517 1.82938C20.9509 1.82586 21.0479 1.82305 21.147 1.82164ZM16.8516 2.62109C17.2869 2.62109 17.2306 2.915 17.5906 3.12664C17.9506 3.33758 17.7608 2.03539 18.0069 2.52617C18.253 3.01625 18.9835 3.69617 18.632 3.82766C18.3296 3.94227 17.0612 4.43164 16.9473 4.34727C16.8334 4.26289 16.6822 3.9043 16.3784 3.82766C16.0747 3.75242 15.7534 3.03523 15.5445 3.05422C15.4651 3.06125 15.458 2.92484 15.5101 2.74344C15.8753 2.62587 16.2439 2.51918 16.6154 2.42352C16.6562 2.53461 16.718 2.62109 16.8516 2.62109ZM26.3572 23.7324C25.9037 24.2007 25.1225 23.4062 24.5832 23.4343C24.0439 23.4624 23.7732 22.8964 23.3049 22.9534C22.8352 23.0089 23.4329 22.3578 24.0861 22.6988C24.7379 23.0384 26.727 23.3492 26.3572 23.7324ZM35.4486 7.60695C35.3164 7.7757 35.1659 7.89383 35.0218 8.01828C34.5964 8.38672 33.8012 8.35859 33.6873 8.61312C33.5734 8.86766 33.2893 9.66008 32.2951 9.66359C31.3009 9.66641 31.5849 11.162 31.4998 11.5887C31.4148 12.0155 31.1884 12.5204 30.9036 12.152C30.6195 11.7842 30.5056 11.9248 29.6267 10.8491C28.7478 9.77328 29.0853 9.17914 29.3701 8.86766C29.6541 8.55688 29.768 7.82 29.3701 7.9332C28.9721 8.04641 28.745 7.79117 28.8301 7.43891C28.9152 7.08664 29.3412 6.8293 28.8301 6.45313C28.3189 6.07766 28.6023 4.73398 28.205 3.50773C27.807 2.28078 27.267 3.14914 26.3867 3.19625C25.5064 3.24336 25.3637 2.58242 25.7616 2.28008C29.4338 3.09214 32.7959 4.94094 35.4486 7.60695Z" fill="#794BFF"/>
</svg>
