<svg width="30" height="30" viewBox="0 0 30 30" fill="none" xmlns="http://www.w3.org/2000/svg">
<path d="M15 0.599609C7.04698 0.599609 0.599976 7.04661 0.599976 14.9996C0.599976 22.9526 7.04698 29.3996 15 29.3996C22.953 29.3996 29.4 22.9526 29.4 14.9996C29.4 7.04661 22.953 0.599609 15 0.599609ZM11.475 20.9681H8.55898V11.5841H11.475V20.9681ZM9.99898 10.4321C9.07798 10.4321 8.48248 9.77961 8.48248 8.97261C8.48248 8.14911 9.09598 7.51611 10.0365 7.51611C10.977 7.51611 11.553 8.14911 11.571 8.97261C11.571 9.77961 10.977 10.4321 9.99898 10.4321ZM22.125 20.9681H19.209V15.7676C19.209 14.5571 18.786 13.7351 17.7315 13.7351C16.926 13.7351 16.4475 14.2916 16.236 14.8271C16.158 15.0176 16.1385 15.2876 16.1385 15.5561V20.9666H13.221V14.5766C13.221 13.4051 13.1835 12.4256 13.1445 11.5826H15.678L15.8115 12.8861H15.87C16.254 12.2741 17.1945 11.3711 18.768 11.3711C20.6865 11.3711 22.125 12.6566 22.125 15.4196V20.9681Z" fill="white"/>
</svg>
