<svg width="50" height="50" viewBox="0 0 50 50" fill="none" xmlns="http://www.w3.org/2000/svg">
<path d="M8.33334 6.25C6.02084 6.25 4.16667 8.10417 4.16667 10.4167V31.25C4.16667 32.3551 4.60566 33.4149 5.38706 34.1963C6.16846 34.9777 7.22827 35.4167 8.33334 35.4167H25V45.8333L31.25 39.5833L37.5 45.8333V35.4167H41.6667C42.7717 35.4167 43.8316 34.9777 44.613 34.1963C45.3944 33.4149 45.8333 32.3551 45.8333 31.25V10.4167C45.8333 9.3116 45.3944 8.25179 44.613 7.47039C43.8316 6.68899 42.7717 6.25 41.6667 6.25H8.33334ZM25 10.4167L31.25 14.5833L37.5 10.4167V17.7083L43.75 20.8333L37.5 23.9583V31.25L31.25 27.0833L25 31.25V23.9583L18.75 20.8333L25 17.7083V10.4167ZM8.33334 10.4167H18.75V14.5833H8.33334V10.4167ZM8.33334 18.75H14.5833V22.9167H8.33334V18.75ZM8.33334 27.0833H18.75V31.25H8.33334V27.0833Z" fill="#794BFF"/>
</svg>
