<svg width="50" height="36" viewBox="0 0 50 36" fill="none" xmlns="http://www.w3.org/2000/svg">
<path d="M24.8686 0.853668C20.5626 0.853668 17.072 4.92908 17.072 9.95636C17.072 13.4429 18.751 16.471 21.2165 18L18.3574 19.325L10.7491 22.8537C10.0141 23.2212 9.64729 23.8444 9.64729 24.7265V33.1057C9.70775 34.1533 10.3363 35.1297 11.3555 35.1463H38.423C39.5865 35.0451 40.175 34.1079 40.1865 33.1057V24.7265C40.1865 23.8444 39.8197 23.2212 39.0847 22.8537L31.7519 19.325L28.7045 17.8813C31.0688 16.3179 32.6653 13.3553 32.6653 9.9564C32.6653 4.92908 29.1746 0.853668 24.8686 0.853668ZM12.2926 4.05466C10.4396 4.12504 8.971 4.92687 7.85525 6.20449C6.62108 7.74274 6.01942 9.56907 6.00779 11.3859C6.08358 14.0725 7.28567 16.6158 9.42567 17.9461L0.881792 21.9165C0.29375 22.137 0 22.6515 0 23.46V30.1849C0.0459167 31.0768 0.509 31.8264 1.37729 31.8392H7.05579V24.7265C7.14975 22.8248 8.04275 21.2878 9.64729 20.5377L15.3243 17.837C15.7653 17.5797 16.188 17.23 16.5923 16.789C14.2516 13.1775 13.9266 8.85186 15.4351 5.04729C14.454 4.44683 13.3513 4.06095 12.2926 4.05466ZM37.6504 4.05466C36.4386 4.08004 35.3187 4.52629 34.3988 5.15649C35.8661 8.99553 35.4614 13.3238 33.2953 16.6781C33.7731 17.2294 34.2705 17.6522 34.785 17.9462L40.2419 20.5377C41.9043 21.4494 42.7615 23.0001 42.778 24.7265V31.8393H48.6211C49.5821 31.7563 49.9917 30.9898 50 30.1849V23.46C50 22.725 49.7063 22.2106 49.1182 21.9165L40.6836 17.8908C42.871 16.2779 43.9694 13.8608 43.9906 11.3859C43.9325 9.42707 43.3341 7.60824 42.1432 6.20449C40.8988 4.85453 39.3553 4.06895 37.6504 4.05466Z" fill="#7849FF"/>
</svg>
