<svg width="45" height="45" viewBox="0 0 45 45" fill="none" xmlns="http://www.w3.org/2000/svg">
<path d="M22.5 2.8125C11.6279 2.8125 2.8125 11.6279 2.8125 22.5C2.8125 33.3721 11.6279 42.1875 22.5 42.1875C33.3721 42.1875 42.1875 33.3721 42.1875 22.5C42.1875 11.6279 33.3721 2.8125 22.5 2.8125ZM28.8325 22.8032L19.2349 29.7861C19.1822 29.8239 19.1202 29.8465 19.0556 29.8514C18.991 29.8562 18.9263 29.8432 18.8686 29.8137C18.8109 29.7841 18.7625 29.7393 18.7287 29.684C18.6948 29.6288 18.6769 29.5653 18.6768 29.5005V15.5435C18.6765 15.4785 18.6943 15.4148 18.7281 15.3594C18.7619 15.3039 18.8104 15.2589 18.8681 15.2293C18.9259 15.1998 18.9908 15.1868 19.0555 15.1918C19.1203 15.1968 19.1823 15.2197 19.2349 15.2578L28.8325 22.2363C28.8779 22.2684 28.9149 22.3109 28.9404 22.3602C28.9659 22.4095 28.9792 22.4642 28.9792 22.5198C28.9792 22.5753 28.9659 22.63 28.9404 22.6794C28.9149 22.7287 28.8779 22.7712 28.8325 22.8032Z" fill="white"/>
</svg>
